<svg width="243" height="25" viewBox="0 0 243 25" fill="none" xmlns="http://www.w3.org/2000/svg">
<path d="M5.144 21.28C5.144 21.9627 5.22933 22.464 5.4 22.784C5.592 23.0827 5.944 23.296 6.456 23.424C6.98933 23.552 7.82133 23.616 8.952 23.616C9.016 23.616 9.048 23.68 9.048 23.808C9.048 23.936 9.016 24 8.952 24C8.07733 24 7.39467 23.9893 6.904 23.968L4.12 23.936L1.976 23.968C1.57067 23.9893 1.02667 24 0.344 24C0.301333 24 0.28 23.936 0.28 23.808C0.28 23.68 0.301333 23.616 0.344 23.616C1.15467 23.616 1.74133 23.5627 2.104 23.456C2.488 23.3493 2.744 23.1467 2.872 22.848C3 22.528 3.064 22.048 3.064 21.408V6.592C3.064 5.952 3 5.48267 2.872 5.184C2.744 4.88533 2.488 4.68266 2.104 4.576C1.74133 4.448 1.15467 4.384 0.344 4.384C0.301333 4.384 0.28 4.32 0.28 4.192C0.28 4.064 0.301333 4 0.344 4L1.944 4.032C2.84 4.07467 3.55467 4.096 4.088 4.096C4.62133 4.096 5.21867 4.064 5.88 4C6.136 4 6.54133 3.98933 7.096 3.968C7.65067 3.92533 8.13067 3.904 8.536 3.904C10.4987 3.904 12.0667 4.34133 13.24 5.216C14.4347 6.09067 15.032 7.424 15.032 9.216C15.032 10.624 14.68 11.808 13.976 12.768C13.2933 13.728 12.408 14.4427 11.32 14.912C10.2533 15.3813 9.144 15.616 7.992 15.616C7.352 15.616 6.82933 15.5627 6.424 15.456C6.36 15.456 6.328 15.4027 6.328 15.296C6.328 15.232 6.33867 15.168 6.36 15.104C6.40267 15.04 6.44533 15.0187 6.488 15.04C6.82933 15.1253 7.21333 15.168 7.64 15.168C9.048 15.168 10.232 14.7093 11.192 13.792C12.1733 12.8747 12.664 11.552 12.664 9.824C12.664 8.13867 12.2053 6.816 11.288 5.856C10.3707 4.87467 9.19733 4.384 7.768 4.384C7 4.384 6.44533 4.42667 6.104 4.512C5.76267 4.59733 5.51733 4.8 5.368 5.12C5.21867 5.41867 5.144 5.93067 5.144 6.656V21.28ZM28.7175 22.272C28.8028 22.272 28.8562 22.3253 28.8775 22.432C28.8988 22.5173 28.8668 22.5813 28.7815 22.624L25.4855 24.192C25.4002 24.2347 25.3148 24.256 25.2295 24.256C24.9522 24.256 24.7068 24.0747 24.4935 23.712C24.2802 23.328 24.1415 22.816 24.0775 22.176L22.4135 23.264C21.8802 23.6053 21.4108 23.8507 21.0055 24C20.6002 24.1493 20.1735 24.224 19.7255 24.224C18.9362 24.224 18.3175 24.0213 17.8695 23.616C17.4428 23.1893 17.2295 22.656 17.2295 22.016C17.2295 21.376 17.4855 20.8213 17.9975 20.352C18.5095 19.8827 19.3522 19.4347 20.5255 19.008L24.0455 17.696V15.52C24.0455 13.1307 23.3735 11.936 22.0295 11.936C21.3042 11.936 20.7495 12.1813 20.3655 12.672C20.0028 13.1413 19.7575 13.6853 19.6295 14.304C19.5655 14.688 19.4482 15.008 19.2775 15.264C19.1068 15.4987 18.8188 15.616 18.4135 15.616C18.0722 15.616 17.8055 15.52 17.6135 15.328C17.4428 15.136 17.3575 14.912 17.3575 14.656C17.3575 14.144 17.6882 13.632 18.3495 13.12C19.0108 12.608 19.8002 12.1813 20.7175 11.84C21.6348 11.4987 22.4562 11.328 23.1815 11.328C24.0562 11.328 24.7175 11.6053 25.1655 12.16C25.6135 12.7147 25.8375 13.5147 25.8375 14.56V20.544C25.8375 21.2907 25.9335 21.8347 26.1255 22.176C26.3175 22.5173 26.6375 22.688 27.0855 22.688C27.4908 22.688 28.0135 22.5493 28.6535 22.272H28.7175ZM24.0455 21.728V21.568V18.144L21.0695 19.296C20.4722 19.5307 20.0348 19.808 19.7575 20.128C19.5015 20.4267 19.3735 20.7893 19.3735 21.216C19.3735 21.728 19.5335 22.1653 19.8535 22.528C20.1948 22.8693 20.6322 23.04 21.1655 23.04C21.5922 23.04 22.1042 22.8693 22.7015 22.528L24.0455 21.728ZM30.1238 24C30.0598 24 30.0278 23.936 30.0278 23.808C30.0278 23.68 30.0598 23.616 30.1238 23.616C30.6998 23.616 31.1264 23.5627 31.4038 23.456C31.6811 23.328 31.8731 23.1147 31.9798 22.816C32.0864 22.496 32.1398 22.0267 32.1398 21.408V4.864C32.1398 4.096 32.0651 3.54133 31.9158 3.2C31.7664 2.85867 31.4998 2.688 31.1158 2.688C30.7958 2.688 30.3051 2.83733 29.6438 3.136H29.5798C29.5158 3.136 29.4624 3.08267 29.4198 2.976C29.3984 2.86933 29.4198 2.80533 29.4838 2.784L33.5798 0.831999C33.6224 0.810666 33.6758 0.799999 33.7398 0.799999C33.7824 0.799999 33.8358 0.831999 33.8998 0.895998C33.9851 0.938665 34.0278 0.991999 34.0278 1.056V21.408C34.0278 22.0267 34.0704 22.4853 34.1558 22.784C34.2624 23.0827 34.4544 23.296 34.7318 23.424C35.0091 23.552 35.4358 23.616 36.0118 23.616C36.0758 23.616 36.1078 23.68 36.1078 23.808C36.1078 23.936 36.0758 24 36.0118 24C35.5424 24 35.1584 23.9893 34.8598 23.968L33.0677 23.936L31.3398 23.968C31.0411 23.9893 30.6358 24 30.1238 24ZM50.3738 22.272C50.4591 22.272 50.5124 22.3253 50.5338 22.432C50.5551 22.5173 50.5231 22.5813 50.4378 22.624L47.1418 24.192C47.0564 24.2347 46.9711 24.256 46.8858 24.256C46.6084 24.256 46.3631 24.0747 46.1498 23.712C45.9364 23.328 45.7978 22.816 45.7338 22.176L44.0698 23.264C43.5364 23.6053 43.0671 23.8507 42.6618 24C42.2564 24.1493 41.8298 24.224 41.3818 24.224C40.5924 24.224 39.9738 24.0213 39.5258 23.616C39.0991 23.1893 38.8858 22.656 38.8858 22.016C38.8858 21.376 39.1418 20.8213 39.6538 20.352C40.1658 19.8827 41.0084 19.4347 42.1818 19.008L45.7018 17.696V15.52C45.7018 13.1307 45.0298 11.936 43.6858 11.936C42.9604 11.936 42.4058 12.1813 42.0218 12.672C41.6591 13.1413 41.4138 13.6853 41.2858 14.304C41.2218 14.688 41.1044 15.008 40.9338 15.264C40.7631 15.4987 40.4751 15.616 40.0698 15.616C39.7284 15.616 39.4618 15.52 39.2698 15.328C39.0991 15.136 39.0138 14.912 39.0138 14.656C39.0138 14.144 39.3444 13.632 40.0058 13.12C40.6671 12.608 41.4564 12.1813 42.3738 11.84C43.2911 11.4987 44.1124 11.328 44.8378 11.328C45.7124 11.328 46.3738 11.6053 46.8218 12.16C47.2698 12.7147 47.4938 13.5147 47.4938 14.56V20.544C47.4938 21.2907 47.5898 21.8347 47.7818 22.176C47.9738 22.5173 48.2938 22.688 48.7418 22.688C49.1471 22.688 49.6698 22.5493 50.3098 22.272H50.3738ZM45.7018 21.728V21.568V18.144L42.7258 19.296C42.1284 19.5307 41.6911 19.808 41.4138 20.128C41.1578 20.4267 41.0298 20.7893 41.0298 21.216C41.0298 21.728 41.1898 22.1653 41.5098 22.528C41.8511 22.8693 42.2884 23.04 42.8218 23.04C43.2484 23.04 43.7604 22.8693 44.3578 22.528L45.7018 21.728ZM63.917 11.648C63.9597 11.648 63.981 11.712 63.981 11.84C63.981 11.968 63.9597 12.032 63.917 12.032C63.3837 12.032 62.925 12.2133 62.541 12.576C62.157 12.9173 61.7943 13.5147 61.453 14.368L57.453 23.968C57.4103 24.0747 57.293 24.128 57.101 24.128C56.909 24.128 56.7917 24.0747 56.749 23.968L52.269 14.304C51.8423 13.3867 51.4797 12.7787 51.181 12.48C50.9037 12.1813 50.5517 12.032 50.125 12.032C50.061 12.032 50.029 11.968 50.029 11.84C50.029 11.712 50.061 11.648 50.125 11.648C50.5517 11.648 50.8823 11.6587 51.117 11.68L52.333 11.712L54.413 11.68C54.733 11.6587 55.1597 11.648 55.693 11.648C55.757 11.648 55.789 11.712 55.789 11.84C55.789 11.968 55.757 12.032 55.693 12.032C54.413 12.032 53.773 12.288 53.773 12.8C53.773 12.9493 53.8157 13.1093 53.901 13.28L57.805 21.536L60.813 14.208C60.9623 13.8027 61.037 13.4933 61.037 13.28C61.037 12.8533 60.8343 12.544 60.429 12.352C60.0237 12.1387 59.3837 12.032 58.509 12.032C58.4663 12.032 58.445 11.968 58.445 11.84C58.445 11.712 58.4663 11.648 58.509 11.648C59.085 11.648 59.5223 11.6587 59.821 11.68L61.741 11.712L62.893 11.68C63.1063 11.6587 63.4477 11.648 63.917 11.648ZM72.8 11.36C73.2693 11.36 73.7173 11.488 74.144 11.744C74.5707 12 74.784 12.3093 74.784 12.672C74.784 12.9493 74.688 13.184 74.496 13.376C74.3253 13.568 74.0693 13.664 73.728 13.664C73.536 13.664 73.3653 13.632 73.216 13.568C73.088 13.4827 72.928 13.3653 72.736 13.216C72.544 13.0453 72.3627 12.9173 72.192 12.832C72.0213 12.7467 71.8187 12.704 71.584 12.704C71.3067 12.704 71.008 12.8213 70.688 13.056C70.3893 13.2907 69.9093 13.792 69.248 14.56V21.408C69.248 22.048 69.3227 22.5173 69.472 22.816C69.6427 23.1147 69.9413 23.328 70.368 23.456C70.7947 23.5627 71.456 23.616 72.352 23.616C72.4373 23.616 72.48 23.68 72.48 23.808C72.48 23.936 72.4373 24 72.352 24C71.6693 24 71.1253 23.9893 70.72 23.968L68.352 23.936L66.592 23.968C66.3147 23.9893 65.9307 24 65.44 24C65.376 24 65.344 23.936 65.344 23.808C65.344 23.68 65.376 23.616 65.44 23.616C66.016 23.616 66.4427 23.5627 66.72 23.456C66.9973 23.328 67.1787 23.1147 67.264 22.816C67.3707 22.5173 67.424 22.048 67.424 21.408V15.072C67.424 14.3467 67.3387 13.824 67.168 13.504C66.9973 13.184 66.7093 13.024 66.304 13.024C65.9627 13.024 65.3867 13.184 64.576 13.504H64.512C64.4267 13.504 64.3627 13.4613 64.32 13.376C64.2987 13.2693 64.3307 13.1947 64.416 13.152L68.128 11.392L68.32 11.36C68.512 11.36 68.7147 11.6053 68.928 12.096C69.1413 12.5867 69.248 13.216 69.248 13.984V14.016C70.1227 12.992 70.816 12.2987 71.328 11.936C71.84 11.552 72.3307 11.36 72.8 11.36ZM88.4363 22.272C88.5216 22.272 88.5749 22.3253 88.5963 22.432C88.6176 22.5173 88.5856 22.5813 88.5003 22.624L85.2043 24.192C85.1189 24.2347 85.0336 24.256 84.9483 24.256C84.6709 24.256 84.4256 24.0747 84.2123 23.712C83.9989 23.328 83.8603 22.816 83.7963 22.176L82.1323 23.264C81.5989 23.6053 81.1296 23.8507 80.7243 24C80.3189 24.1493 79.8923 24.224 79.4443 24.224C78.6549 24.224 78.0363 24.0213 77.5883 23.616C77.1616 23.1893 76.9483 22.656 76.9483 22.016C76.9483 21.376 77.2043 20.8213 77.7163 20.352C78.2283 19.8827 79.0709 19.4347 80.2443 19.008L83.7643 17.696V15.52C83.7643 13.1307 83.0923 11.936 81.7483 11.936C81.0229 11.936 80.4683 12.1813 80.0843 12.672C79.7216 13.1413 79.4763 13.6853 79.3483 14.304C79.2843 14.688 79.1669 15.008 78.9963 15.264C78.8256 15.4987 78.5376 15.616 78.1323 15.616C77.7909 15.616 77.5243 15.52 77.3323 15.328C77.1616 15.136 77.0763 14.912 77.0763 14.656C77.0763 14.144 77.4069 13.632 78.0683 13.12C78.7296 12.608 79.5189 12.1813 80.4363 11.84C81.3536 11.4987 82.1749 11.328 82.9003 11.328C83.7749 11.328 84.4363 11.6053 84.8843 12.16C85.3323 12.7147 85.5563 13.5147 85.5563 14.56V20.544C85.5563 21.2907 85.6523 21.8347 85.8443 22.176C86.0363 22.5173 86.3563 22.688 86.8043 22.688C87.2096 22.688 87.7323 22.5493 88.3723 22.272H88.4363ZM83.7643 21.728V21.568V18.144L80.7883 19.296C80.1909 19.5307 79.7536 19.808 79.4763 20.128C79.2203 20.4267 79.0923 20.7893 79.0923 21.216C79.0923 21.728 79.2523 22.1653 79.5723 22.528C79.9136 22.8693 80.3509 23.04 80.8843 23.04C81.3109 23.04 81.8229 22.8693 82.4203 22.528L83.7643 21.728ZM91.7945 13.6C91.7945 14.3467 92.0398 14.944 92.5305 15.392C93.0212 15.8187 93.7358 16.2773 94.6745 16.768C95.4212 17.152 95.9972 17.4827 96.4025 17.76C96.8292 18.0373 97.1918 18.4 97.4905 18.848C97.7892 19.296 97.9385 19.84 97.9385 20.48C97.9385 21.568 97.5332 22.4853 96.7225 23.232C95.9118 23.9787 94.8132 24.352 93.4265 24.352C92.2958 24.352 91.2718 24.032 90.3545 23.392C90.2265 23.3067 90.1625 23.1787 90.1625 23.008L90.0985 20.512C90.0985 20.448 90.1518 20.416 90.2585 20.416C90.3865 20.3947 90.4612 20.416 90.4825 20.48C90.8878 21.5467 91.4105 22.3573 92.0505 22.912C92.7118 23.4667 93.4692 23.744 94.3225 23.744C95.0265 23.744 95.5598 23.5733 95.9225 23.232C96.2852 22.8907 96.4452 22.3893 96.4025 21.728C96.3812 20.9173 96.1252 20.2987 95.6345 19.872C95.1652 19.424 94.4505 18.9653 93.4905 18.496C92.7865 18.1547 92.2212 17.8453 91.7945 17.568C91.3892 17.2907 91.0372 16.928 90.7385 16.48C90.4612 16.032 90.3225 15.4773 90.3225 14.816C90.3225 13.664 90.7492 12.7893 91.6025 12.192C92.4772 11.5733 93.5012 11.264 94.6745 11.264C95.5278 11.264 96.3065 11.424 97.0105 11.744C97.1385 11.7867 97.2132 11.84 97.2345 11.904C97.2772 11.9467 97.2985 12.0107 97.2985 12.096C97.2985 12.5227 97.2878 12.8533 97.2665 13.088L97.2345 14.432C97.2345 14.4747 97.1705 14.496 97.0425 14.496C96.9145 14.496 96.8505 14.4747 96.8505 14.432C96.8505 13.984 96.6798 13.568 96.3385 13.184C95.9972 12.7787 95.5705 12.4587 95.0585 12.224C94.5465 11.9893 94.0345 11.872 93.5225 11.872C92.9892 11.872 92.5625 12.0213 92.2425 12.32C91.9438 12.5973 91.7945 13.024 91.7945 13.6ZM120.027 3.648C121.371 3.648 122.502 3.744 123.419 3.936C124.336 4.128 125.254 4.45867 126.171 4.928C126.32 5.01333 126.406 5.088 126.427 5.152C126.448 5.216 126.48 5.376 126.523 5.632L126.907 9.44C126.907 9.504 126.843 9.54667 126.715 9.568C126.608 9.568 126.544 9.536 126.523 9.472C125.542 5.90933 123.344 4.128 119.931 4.128C118.139 4.128 116.56 4.52267 115.195 5.312C113.83 6.10133 112.774 7.232 112.027 8.704C111.28 10.1547 110.907 11.8507 110.907 13.792C110.907 15.648 111.312 17.3547 112.123 18.912C112.955 20.448 114.064 21.664 115.451 22.56C116.859 23.456 118.384 23.904 120.027 23.904C121.776 23.904 123.195 23.4773 124.283 22.624C125.371 21.7707 126.203 20.4693 126.779 18.72C126.779 18.6773 126.832 18.656 126.939 18.656C127.088 18.656 127.163 18.688 127.163 18.752L126.843 22.272C126.822 22.528 126.79 22.688 126.747 22.752C126.704 22.816 126.619 22.8907 126.491 22.976C125.382 23.5093 124.336 23.8827 123.355 24.096C122.395 24.3093 121.286 24.416 120.027 24.416C117.787 24.416 115.782 23.9787 114.011 23.104C112.262 22.208 110.896 20.96 109.915 19.36C108.934 17.76 108.443 15.9253 108.443 13.856C108.443 11.8507 108.944 10.08 109.947 8.544C110.95 6.98667 112.326 5.78133 114.075 4.928C115.846 4.07467 117.83 3.648 120.027 3.648ZM142.093 22.272C142.178 22.272 142.231 22.3253 142.253 22.432C142.274 22.5173 142.242 22.5813 142.157 22.624L138.861 24.192C138.775 24.2347 138.69 24.256 138.605 24.256C138.327 24.256 138.082 24.0747 137.869 23.712C137.655 23.328 137.517 22.816 137.453 22.176L135.789 23.264C135.255 23.6053 134.786 23.8507 134.381 24C133.975 24.1493 133.549 24.224 133.101 24.224C132.311 24.224 131.693 24.0213 131.245 23.616C130.818 23.1893 130.605 22.656 130.605 22.016C130.605 21.376 130.861 20.8213 131.373 20.352C131.885 19.8827 132.727 19.4347 133.901 19.008L137.421 17.696V15.52C137.421 13.1307 136.749 11.936 135.405 11.936C134.679 11.936 134.125 12.1813 133.741 12.672C133.378 13.1413 133.133 13.6853 133.005 14.304C132.941 14.688 132.823 15.008 132.653 15.264C132.482 15.4987 132.194 15.616 131.789 15.616C131.447 15.616 131.181 15.52 130.989 15.328C130.818 15.136 130.733 14.912 130.733 14.656C130.733 14.144 131.063 13.632 131.725 13.12C132.386 12.608 133.175 12.1813 134.093 11.84C135.01 11.4987 135.831 11.328 136.557 11.328C137.431 11.328 138.093 11.6053 138.541 12.16C138.989 12.7147 139.213 13.5147 139.213 14.56V20.544C139.213 21.2907 139.309 21.8347 139.501 22.176C139.693 22.5173 140.013 22.688 140.461 22.688C140.866 22.688 141.389 22.5493 142.029 22.272H142.093ZM137.421 21.728V21.568V18.144L134.445 19.296C133.847 19.5307 133.41 19.808 133.133 20.128C132.877 20.4267 132.749 20.7893 132.749 21.216C132.749 21.728 132.909 22.1653 133.229 22.528C133.57 22.8693 134.007 23.04 134.541 23.04C134.967 23.04 135.479 22.8693 136.077 22.528L137.421 21.728ZM152.427 0.768C153.515 0.768 154.4 0.938666 155.083 1.28C155.787 1.6 156.139 1.99467 156.139 2.464C156.139 2.784 156.021 3.04 155.787 3.232C155.573 3.40267 155.317 3.488 155.019 3.488C154.763 3.488 154.539 3.424 154.347 3.296C154.155 3.168 153.952 2.95466 153.739 2.656C153.419 2.208 153.067 1.87733 152.683 1.664C152.32 1.42933 151.861 1.312 151.307 1.312C150.069 1.312 149.088 2.02667 148.363 3.456C147.637 4.88533 147.275 7.05067 147.275 9.952V12C148.256 11.9787 149.621 11.872 151.371 11.68C151.435 11.68 151.488 11.7547 151.531 11.904C151.573 12.0533 151.595 12.2347 151.595 12.448C151.595 12.6187 151.563 12.8 151.499 12.992C151.435 13.1627 151.36 13.2373 151.275 13.216C150.037 12.9173 148.704 12.7467 147.275 12.704V21.408C147.275 22.0693 147.349 22.5493 147.499 22.848C147.648 23.1467 147.936 23.3493 148.363 23.456C148.789 23.5627 149.472 23.616 150.411 23.616C150.475 23.616 150.507 23.68 150.507 23.808C150.507 23.936 150.475 24 150.411 24L148.363 23.968C147.915 23.9467 147.232 23.936 146.315 23.936L144.523 23.968C144.224 23.9893 143.797 24 143.243 24C143.179 24 143.147 23.936 143.147 23.808C143.147 23.68 143.179 23.616 143.243 23.616C143.883 23.616 144.352 23.5627 144.651 23.456C144.949 23.328 145.152 23.1147 145.259 22.816C145.387 22.5173 145.451 22.048 145.451 21.408V14.208C145.451 13.6533 145.397 13.2693 145.291 13.056C145.184 12.8213 144.971 12.672 144.651 12.608C144.352 12.5227 143.84 12.48 143.115 12.48C143.051 12.48 143.019 12.416 143.019 12.288C143.019 12.1387 143.051 12.064 143.115 12.064C143.989 12.064 144.576 11.968 144.875 11.776C145.195 11.5627 145.365 11.1787 145.387 10.624C145.493 7.168 146.123 4.66133 147.275 3.104C148.448 1.54667 150.165 0.768 152.427 0.768ZM163.457 22.208C163.521 22.208 163.574 22.2507 163.617 22.336C163.681 22.4 163.691 22.464 163.649 22.528C162.241 23.7653 160.683 24.384 158.977 24.384C157.739 24.384 156.683 24.096 155.809 23.52C154.934 22.944 154.262 22.1867 153.793 21.248C153.345 20.3093 153.121 19.3067 153.121 18.24C153.121 16.9813 153.419 15.8293 154.017 14.784C154.614 13.7173 155.425 12.8853 156.449 12.288C157.494 11.6693 158.635 11.36 159.873 11.36C161.067 11.36 161.985 11.68 162.625 12.32C163.265 12.96 163.585 13.856 163.585 15.008C163.585 15.3067 163.553 15.52 163.489 15.648C163.446 15.776 163.361 15.84 163.233 15.84L155.297 15.872C155.254 16.3413 155.233 16.7253 155.233 17.024C155.233 18.88 155.67 20.384 156.545 21.536C157.419 22.688 158.646 23.264 160.225 23.264C160.865 23.264 161.409 23.1787 161.857 23.008C162.326 22.8373 162.849 22.5707 163.425 22.208H163.457ZM158.817 12C157.899 12 157.142 12.3093 156.545 12.928C155.947 13.5253 155.553 14.368 155.361 15.456L161.441 15.328C161.441 14.24 161.206 13.4187 160.737 12.864C160.267 12.288 159.627 12 158.817 12ZM169.415 7.616C168.967 7.616 168.615 7.49867 168.359 7.264C168.125 7.02933 168.007 6.69867 168.007 6.272C168.007 5.84533 168.125 5.51467 168.359 5.28C168.615 5.04533 168.967 4.928 169.415 4.928C169.842 4.928 170.173 5.04533 170.407 5.28C170.642 5.51467 170.759 5.84533 170.759 6.272C170.759 6.69867 170.642 7.02933 170.407 7.264C170.173 7.49867 169.842 7.616 169.415 7.616ZM166.727 24C166.685 24 166.663 23.936 166.663 23.808C166.663 23.68 166.685 23.616 166.727 23.616C167.303 23.616 167.73 23.5627 168.007 23.456C168.306 23.328 168.509 23.1147 168.615 22.816C168.722 22.496 168.775 22.0267 168.775 21.408V15.424C168.775 14.656 168.69 14.1013 168.519 13.76C168.37 13.4187 168.103 13.248 167.719 13.248C167.335 13.248 166.855 13.3973 166.279 13.696H166.247C166.162 13.696 166.098 13.6427 166.055 13.536C166.013 13.4293 166.023 13.3547 166.087 13.312L170.247 11.392L170.375 11.36C170.418 11.36 170.471 11.392 170.535 11.456C170.599 11.4987 170.631 11.552 170.631 11.616C170.631 11.7653 170.621 12.192 170.599 12.896C170.578 13.6 170.567 14.432 170.567 15.392V21.408C170.567 22.048 170.621 22.5173 170.727 22.816C170.834 23.1147 171.026 23.328 171.303 23.456C171.581 23.5627 172.007 23.616 172.583 23.616C172.647 23.616 172.679 23.68 172.679 23.808C172.679 23.936 172.647 24 172.583 24C172.093 24 171.698 23.9893 171.399 23.968L169.671 23.936L167.943 23.968C167.645 23.9893 167.239 24 166.727 24ZM189.621 23.616C189.685 23.616 189.717 23.68 189.717 23.808C189.717 23.936 189.685 24 189.621 24C189.131 24 188.747 23.9893 188.469 23.968L186.741 23.936L184.981 23.968C184.704 23.9893 184.32 24 183.829 24C183.765 24 183.733 23.936 183.733 23.808C183.733 23.68 183.765 23.616 183.829 23.616C184.405 23.616 184.832 23.5627 185.109 23.456C185.387 23.328 185.568 23.1147 185.653 22.816C185.76 22.5173 185.813 22.048 185.813 21.408V16.224C185.813 14.9653 185.568 14.0373 185.077 13.44C184.608 12.8427 183.872 12.544 182.869 12.544C182.208 12.544 181.536 12.7253 180.853 13.088C180.192 13.4293 179.584 13.9093 179.029 14.528V21.408C179.029 22.048 179.072 22.5173 179.157 22.816C179.264 23.1147 179.456 23.328 179.733 23.456C180.011 23.5627 180.437 23.616 181.013 23.616C181.077 23.616 181.109 23.68 181.109 23.808C181.109 23.936 181.077 24 181.013 24C180.523 24 180.139 23.9893 179.861 23.968L178.133 23.936L176.373 23.968C176.096 23.9893 175.712 24 175.221 24C175.157 24 175.125 23.936 175.125 23.808C175.125 23.68 175.157 23.616 175.221 23.616C175.797 23.616 176.224 23.5627 176.501 23.456C176.779 23.328 176.96 23.1147 177.045 22.816C177.152 22.5173 177.205 22.048 177.205 21.408V15.072C177.205 14.3467 177.12 13.824 176.949 13.504C176.779 13.184 176.491 13.024 176.085 13.024C175.744 13.024 175.168 13.184 174.357 13.504H174.293C174.208 13.504 174.144 13.4613 174.101 13.376C174.08 13.2693 174.112 13.1947 174.197 13.152L177.909 11.392L178.101 11.36C178.293 11.36 178.496 11.6053 178.709 12.096C178.923 12.5867 179.029 13.216 179.029 13.984C179.84 13.0453 180.64 12.352 181.429 11.904C182.24 11.456 183.072 11.232 183.925 11.232C185.12 11.232 186.037 11.5627 186.677 12.224C187.317 12.8853 187.637 13.856 187.637 15.136V21.408C187.637 22.048 187.68 22.5173 187.765 22.816C187.872 23.1147 188.064 23.328 188.341 23.456C188.619 23.5627 189.045 23.616 189.621 23.616ZM203.593 22.272C203.678 22.272 203.731 22.3253 203.753 22.432C203.774 22.5173 203.742 22.5813 203.657 22.624L200.361 24.192C200.275 24.2347 200.19 24.256 200.105 24.256C199.827 24.256 199.582 24.0747 199.369 23.712C199.155 23.328 199.017 22.816 198.953 22.176L197.289 23.264C196.755 23.6053 196.286 23.8507 195.881 24C195.475 24.1493 195.049 24.224 194.601 24.224C193.811 24.224 193.193 24.0213 192.745 23.616C192.318 23.1893 192.105 22.656 192.105 22.016C192.105 21.376 192.361 20.8213 192.873 20.352C193.385 19.8827 194.227 19.4347 195.401 19.008L198.921 17.696V15.52C198.921 13.1307 198.249 11.936 196.905 11.936C196.179 11.936 195.625 12.1813 195.241 12.672C194.878 13.1413 194.633 13.6853 194.505 14.304C194.441 14.688 194.323 15.008 194.153 15.264C193.982 15.4987 193.694 15.616 193.289 15.616C192.947 15.616 192.681 15.52 192.489 15.328C192.318 15.136 192.233 14.912 192.233 14.656C192.233 14.144 192.563 13.632 193.225 13.12C193.886 12.608 194.675 12.1813 195.593 11.84C196.51 11.4987 197.331 11.328 198.057 11.328C198.931 11.328 199.593 11.6053 200.041 12.16C200.489 12.7147 200.713 13.5147 200.713 14.56V20.544C200.713 21.2907 200.809 21.8347 201.001 22.176C201.193 22.5173 201.513 22.688 201.961 22.688C202.366 22.688 202.889 22.5493 203.529 22.272H203.593ZM198.921 21.728V21.568V18.144L195.945 19.296C195.347 19.5307 194.91 19.808 194.633 20.128C194.377 20.4267 194.249 20.7893 194.249 21.216C194.249 21.728 194.409 22.1653 194.729 22.528C195.07 22.8693 195.507 23.04 196.041 23.04C196.467 23.04 196.979 22.8693 197.577 22.528L198.921 21.728ZM219.911 22.176C219.996 22.176 220.049 22.2293 220.071 22.336C220.113 22.4427 220.103 22.5173 220.039 22.56L216.519 24.224C216.391 24.2667 216.305 24.288 216.263 24.288C215.985 24.288 215.751 24.0533 215.559 23.584C215.367 23.1147 215.26 22.464 215.239 21.632C214.449 22.464 213.617 23.136 212.743 23.648C211.889 24.16 210.929 24.416 209.863 24.416C208.967 24.416 208.135 24.16 207.367 23.648C206.62 23.136 206.012 22.4213 205.543 21.504C205.095 20.5653 204.871 19.4987 204.871 18.304C204.871 16.7893 205.244 15.4987 205.991 14.432C206.737 13.3653 207.676 12.5653 208.807 12.032C209.937 11.4987 211.057 11.232 212.167 11.232C213.297 11.232 214.321 11.5093 215.239 12.064V4.896C215.239 4.128 215.153 3.57333 214.983 3.232C214.833 2.89067 214.567 2.72 214.183 2.72C213.905 2.72 213.415 2.86933 212.711 3.168H212.647C212.561 3.168 212.497 3.12533 212.455 3.04C212.433 2.93333 212.455 2.85867 212.519 2.816L216.583 0.831999C216.625 0.810666 216.679 0.799999 216.743 0.799999C216.785 0.799999 216.839 0.831999 216.903 0.895998C216.988 0.938665 217.031 0.991999 217.031 1.056V20.48C217.031 21.248 217.116 21.8027 217.287 22.144C217.479 22.4853 217.777 22.656 218.183 22.656C218.801 22.656 219.356 22.5067 219.847 22.208L219.911 22.176ZM211.111 23.264C211.879 23.264 212.593 23.0827 213.255 22.72C213.916 22.336 214.577 21.8027 215.239 21.12V14.08C214.727 13.376 214.161 12.832 213.543 12.448C212.924 12.064 212.177 11.872 211.303 11.872C209.959 11.872 208.892 12.352 208.103 13.312C207.335 14.2507 206.951 15.5947 206.951 17.344C206.951 18.5173 207.132 19.552 207.495 20.448C207.857 21.344 208.348 22.0373 208.967 22.528C209.607 23.0187 210.321 23.264 211.111 23.264ZM233.374 22.272C233.459 22.272 233.512 22.3253 233.534 22.432C233.555 22.5173 233.523 22.5813 233.438 22.624L230.142 24.192C230.056 24.2347 229.971 24.256 229.886 24.256C229.608 24.256 229.363 24.0747 229.15 23.712C228.936 23.328 228.798 22.816 228.734 22.176L227.07 23.264C226.536 23.6053 226.067 23.8507 225.662 24C225.256 24.1493 224.83 24.224 224.382 24.224C223.592 24.224 222.974 24.0213 222.526 23.616C222.099 23.1893 221.886 22.656 221.886 22.016C221.886 21.376 222.142 20.8213 222.654 20.352C223.166 19.8827 224.008 19.4347 225.182 19.008L228.702 17.696V15.52C228.702 13.1307 228.03 11.936 226.686 11.936C225.96 11.936 225.406 12.1813 225.022 12.672C224.659 13.1413 224.414 13.6853 224.286 14.304C224.222 14.688 224.104 15.008 223.934 15.264C223.763 15.4987 223.475 15.616 223.07 15.616C222.728 15.616 222.462 15.52 222.27 15.328C222.099 15.136 222.014 14.912 222.014 14.656C222.014 14.144 222.344 13.632 223.006 13.12C223.667 12.608 224.456 12.1813 225.374 11.84C226.291 11.4987 227.112 11.328 227.838 11.328C228.712 11.328 229.374 11.6053 229.822 12.16C230.27 12.7147 230.494 13.5147 230.494 14.56V20.544C230.494 21.2907 230.59 21.8347 230.782 22.176C230.974 22.5173 231.294 22.688 231.742 22.688C232.147 22.688 232.67 22.5493 233.31 22.272H233.374ZM228.702 21.728V21.568V18.144L225.726 19.296C225.128 19.5307 224.691 19.808 224.414 20.128C224.158 20.4267 224.03 20.7893 224.03 21.216C224.03 21.728 224.19 22.1653 224.51 22.528C224.851 22.8693 225.288 23.04 225.822 23.04C226.248 23.04 226.76 22.8693 227.358 22.528L228.702 21.728ZM236.732 13.6C236.732 14.3467 236.977 14.944 237.468 15.392C237.959 15.8187 238.673 16.2773 239.612 16.768C240.359 17.152 240.935 17.4827 241.34 17.76C241.767 18.0373 242.129 18.4 242.428 18.848C242.727 19.296 242.876 19.84 242.876 20.48C242.876 21.568 242.471 22.4853 241.66 23.232C240.849 23.9787 239.751 24.352 238.364 24.352C237.233 24.352 236.209 24.032 235.292 23.392C235.164 23.3067 235.1 23.1787 235.1 23.008L235.036 20.512C235.036 20.448 235.089 20.416 235.196 20.416C235.324 20.3947 235.399 20.416 235.42 20.48C235.825 21.5467 236.348 22.3573 236.988 22.912C237.649 23.4667 238.407 23.744 239.26 23.744C239.964 23.744 240.497 23.5733 240.86 23.232C241.223 22.8907 241.383 22.3893 241.34 21.728C241.319 20.9173 241.063 20.2987 240.572 19.872C240.103 19.424 239.388 18.9653 238.428 18.496C237.724 18.1547 237.159 17.8453 236.732 17.568C236.327 17.2907 235.975 16.928 235.676 16.48C235.399 16.032 235.26 15.4773 235.26 14.816C235.26 13.664 235.687 12.7893 236.54 12.192C237.415 11.5733 238.439 11.264 239.612 11.264C240.465 11.264 241.244 11.424 241.948 11.744C242.076 11.7867 242.151 11.84 242.172 11.904C242.215 11.9467 242.236 12.0107 242.236 12.096C242.236 12.5227 242.225 12.8533 242.204 13.088L242.172 14.432C242.172 14.4747 242.108 14.496 241.98 14.496C241.852 14.496 241.788 14.4747 241.788 14.432C241.788 13.984 241.617 13.568 241.276 13.184C240.935 12.7787 240.508 12.4587 239.996 12.224C239.484 11.9893 238.972 11.872 238.46 11.872C237.927 11.872 237.5 12.0213 237.18 12.32C236.881 12.5973 236.732 13.024 236.732 13.6Z" fill="#F0F0F0"/>
</svg>
